<svg width="1024" height="1024" viewBox="0 0 1024 1024" fill="none" xmlns="http://www.w3.org/2000/svg">
<path d="M494.775 90.027C728.055 80.6735 924.785 262.115 934.3 495.388C943.81 728.66 762.505 925.515 529.24 935.185C295.748 944.87 98.66 763.345 89.1385 529.85C79.617 296.353 261.272 99.3895 494.775 90.027ZM531.515 890.83C740.445 880.065 901.055 701.91 890.18 492.987C879.3 284.063 701.05 123.553 492.133 134.552C283.383 145.541 123.03 323.613 133.901 532.37C144.772 741.125 322.754 901.58 531.515 890.83Z" fill="#00F5FD" fill-opacity="0.988235"/>
<path d="M347.964 258.719C368.568 259.824 385.3 264.847 399.586 280.875C409.905 292.453 419.732 304.512 429.829 316.295C450.832 340.592 471.704 364.999 492.447 389.518C519.365 420.974 546.105 452.586 572.66 484.351C586.635 500.86 600.755 517.36 614.635 533.955C617.04 537.07 619.41 539.8 620.9 543.46C628.255 561.505 604.145 579.63 589.205 567.72C581.475 561.55 573.955 551.575 567.455 543.935L541.67 513.75L433.121 387.426L391.501 339.104C384.815 331.298 374.318 318.165 367.478 311.263C364.486 308.262 361.034 305.756 357.254 303.842C350.538 300.5 342.794 299.721 335.664 302.299C328.573 304.882 323.198 310.776 321.28 318.074C319.486 325.181 320 337.993 320.001 345.674L320.027 382.797L320.033 568.365L320.038 619.795C320.038 626.39 320.263 637.9 319.701 643.99C319.252 648.845 308.9 659.405 306.06 666.32C301.797 676.175 300.234 687.245 304.051 697.54C311.922 719.03 336.918 728.455 357.689 719.615C382.597 709.01 389.363 681.21 372.895 660.02C371.136 657.755 364.474 650.35 364.134 647.99C361.358 628.705 362.785 607.92 362.777 588.365L362.604 508.75C362.632 483.977 362.349 459.39 362.575 434.442C361.8 417.066 381.471 408.056 394.719 418.539C401.954 424.264 409.193 434.068 415.227 441.223L441.63 472.246L579.12 633.745L619.53 682.015C625.515 689.195 631.4 696.46 637.45 703.58C642.865 709.95 645.82 711.965 654.105 709.11C656.81 706.49 658.83 703.555 659.145 699.725C659.89 690.695 659.31 681.265 659.33 672.17L659.37 602.125L659.31 469.859C659.34 443.996 659.93 414.657 659.065 389.083C652.345 387.77 645.675 385.513 639.805 381.965C626.27 373.671 616.615 360.317 612.975 344.869C609.095 328.539 611.33 308.782 620.475 294.553C631.015 278.164 645.805 265.815 665.045 261.534C683.91 257.438 703.63 260.982 719.885 271.388C752.57 292.662 760.065 340.897 733.005 369.688C725.565 377.601 714.74 385.528 703.925 387.737V584.69L704.02 656.515C704.02 669.72 704.26 684.205 703.55 697.295C702.285 714.25 691.98 730.595 679.515 741.5C662.5 756.38 633.505 761.475 616.375 744.07C605.395 732.915 594.905 719.46 584.75 707.27L536.785 650.71L440.754 537.895C428.84 524.07 417.082 510.11 405.483 496.017C405.902 524.445 406.075 552.88 406.002 581.31C406.004 598.705 405.486 618.585 406.681 635.655C417.779 650.86 423.691 661.325 425.28 680.61C428.787 723.185 389.311 761.8 348.531 765.765C327.338 767.825 303.942 761.06 287.68 746.805C270.996 732.445 260.737 712.02 259.18 690.06C258.2 674.145 260.753 661.4 268.177 647.225C270.909 642.01 275.204 637.355 275.287 631.27C275.399 622.97 275.346 614.555 275.336 606.255L275.347 559.95L275.241 396.901L275.182 347.434C275.175 338.245 274.767 325.451 276.169 316.619C277.999 305.092 285.131 292.801 292.88 284.155C308.349 266.894 325.148 260.047 347.964 258.719ZM683.26 352.216C697.285 350.476 707.28 337.735 705.62 323.696C703.965 309.657 691.285 299.59 677.235 301.163C663.07 302.748 652.895 315.561 654.565 329.719C656.235 343.877 669.11 353.971 683.26 352.216Z" fill="#00F5FD" fill-opacity="0.988235"/>
</svg>
